# xmcd CD database file
#
# Track frame offsets:
#       150
#       13666
#       25509
#       36542
#       50120
#       62594
#       76247
#       90760
#       101063
#       183713
#       192122
#       202652
#       224305
#       245975
#       272284
#       287743
#       307357
#       319798
#
# Disc length: 4520 seconds
#
# Revision: 1
# Processed by: cddbd v1.5.2PL0 Copyright (c) Steve Scherf et al.
# Submitted via: CDDBEditor PBVER-PBREV
#
DISCID=fe11a612
DTITLE=Charles Trénet - La Folle Complainte - Complete Songs Vol. 8
DYEAR=1952
DGENRE=Chansons
TTITLE0=L'âme des poètes - Yvette Giraud
TTITLE1=La Marche des Jeunes
TTITLE2=Dansle pharmacies
TTITLE3=Votre Visage
TTITLE4=Une Noix
TTITLE5=La Folle Complainte
TTITLE6=L'oiseau de Paradis
TTITLE7=Miss Emily
TTITLE8=Bande originale du film Bouquet de Joie
TTITLE9=Boum ! Mes jeunes Années
TTITLE10=Ohé ! Paris
TTITLE11=L'âme des Poètes
TTITLE12=La Cité de Carcassonne
TTITLE13=Mon vieu Ciné
TTITLE14=Le Roi Dagobert
TTITLE15=Histoire d'un Monsieur
TTITLE16=La Vieille
TTITLE17=Dans les Rues de Québec
EXTD=
EXTT0=
EXTT1=
EXTT2=
EXTT3=
EXTT4=
EXTT5=
EXTT6=
EXTT7=
EXTT8=
EXTT9=
EXTT10=
EXTT11=
EXTT12=
EXTT13=
EXTT14=
EXTT15=
EXTT16=
EXTT17=
PLAYORDER=
